<svg height="40" width="159.66" xmlns="http://www.w3.org/2000/svg"><g fill="#6a828c"><path d="M159.66 8.44v-.92a13.51 13.51 0 00-.19-2 6.62 6.62 0 00-.62-1.9A6.47 6.47 0 00156 .82a6.77 6.77 0 00-1.91-.63 13 13 0 00-2-.18H7.52a13.21 13.21 0 00-2 .18 6.67 6.67 0 00-1.9.63A6.44 6.44 0 002 2 6.26 6.26 0 00.82 3.62a6.6 6.6 0 00-.62 1.9 13 13 0 00-.18 2V32.48a13 13 0 00.18 2 6.59 6.59 0 00.63 1.9A6.21 6.21 0 002 38a6.27 6.27 0 001.62 1.18 6.7 6.7 0 001.9.63 13.45 13.45 0 002 .18h144.62a13.27 13.27 0 002-.18 6.8 6.8 0 001.91-.63 6.28 6.28 0 001.62-1.18 6.39 6.39 0 001.18-1.61 6.6 6.6 0 00.62-1.9 13.51 13.51 0 00.19-2v-.92V9.54v-1.1zm-.87 22V32.45a12.74 12.74 0 01-.17 1.85 5.74 5.74 0 01-.54 1.67 5.48 5.48 0 01-1 1.39 5.42 5.42 0 01-1.4 1A5.86 5.86 0 01154 39a12.54 12.54 0 01-1.87.16H7.54A12.69 12.69 0 015.67 39 5.88 5.88 0 014 38.4a5.41 5.41 0 01-1.4-1 5.32 5.32 0 01-1-1.4 5.72 5.72 0 01-.54-1.66 12.42 12.42 0 01-.17-1.87V8.44v-.89a12.37 12.37 0 01.17-1.87A5.76 5.76 0 011.6 4a5.37 5.37 0 011-1.4 5.57 5.57 0 011.4-1 5.82 5.82 0 011.65-.54A12.59 12.59 0 017.54.89h144.59a12.38 12.38 0 011.86.16 5.94 5.94 0 011.67.55 5.59 5.59 0 012.41 2.4 5.76 5.76 0 01.54 1.65 13 13 0 01.17 1.89v1.98z"/><path d="M45 9.4a1.57 1.57 0 00-1.29.58 2.49 2.49 0 00-.47 1.61 2.5 2.5 0 00.45 1.62 1.6 1.6 0 001.31.55 3.43 3.43 0 00.72-.07q.35-.07.72-.19v.82a4.38 4.38 0 01-1.55.26 2.48 2.48 0 01-2-.78 3.24 3.24 0 01-.69-2.22 3.58 3.58 0 01.37-1.58 2.38 2.38 0 011-1A2.91 2.91 0 0145 8.58a3.67 3.67 0 011.66.42l-.34.79a5.15 5.15 0 00-.62-.25 2.25 2.25 0 00-.7-.14zM50.21 10.08h1l-1.82 2.13 2 2.28h-1.08l-1.91-2.24v2.24h-.94v-4.41h.94v2.14zM54.75 14.49l-.19-.61a1.8 1.8 0 01-.64.55 2 2 0 01-.83.15 1.4 1.4 0 01-1-.35 1.31 1.31 0 01-.36-1 1.16 1.16 0 01.51-1 2.92 2.92 0 011.54-.38h.76v-.24a.89.89 0 00-.2-.63.8.8 0 00-.61-.21 2.12 2.12 0 00-.65.1 4.92 4.92 0 00-.6.23l-.3-.67a3.27 3.27 0 01.79-.29 3.62 3.62 0 01.81-.1 1.91 1.91 0 011.27.37 1.44 1.44 0 01.43 1.15v3zm-1.4-.64a1.16 1.16 0 00.82-.29 1 1 0 00.31-.8v-.38h-.57a1.94 1.94 0 00-1 .22.67.67 0 00-.3.6.59.59 0 00.18.46.75.75 0 00.57.19zM57.43 10.08v1.61a.61.61 0 00.7.68 2.36 2.36 0 00.66-.09 3.36 3.36 0 00.69-.3v-1.9h.94v4.41h-.94v-1.87a3.33 3.33 0 01-.75.35 2.6 2.6 0 01-.79.11 1.52 1.52 0 01-1.08-.36 1.29 1.29 0 01-.39-1v-1.64zM64.4 14.49l-.19-.61a1.8 1.8 0 01-.64.55 2 2 0 01-.83.15 1.4 1.4 0 01-1-.35 1.31 1.31 0 01-.37-1 1.16 1.16 0 01.51-1 2.92 2.92 0 011.54-.38h.76v-.24a.89.89 0 00-.2-.63.81.81 0 00-.61-.21 2.11 2.11 0 00-.65.1 4.92 4.92 0 00-.6.23l-.3-.67a3.27 3.27 0 01.79-.29 3.61 3.61 0 01.8-.1 1.91 1.91 0 011.27.37 1.44 1.44 0 01.43 1.15v3zm-1.4-.64a1.17 1.17 0 00.82-.29 1 1 0 00.31-.8v-.38h-.57a1.94 1.94 0 00-1 .22.67.67 0 00-.3.6.59.59 0 00.18.46.75.75 0 00.56.19zM67.15 10.08v2.26q0 .39-.06 1.16l2.21-3.42h1.14v4.41h-.9v-2.22-.59-.6l-2.14 3.41h-1.14v-4.41zm1.17-.54a2 2 0 01-1.24-.3 1.32 1.32 0 01-.44-1h.85a1.17 1.17 0 00.11.45.49.49 0 00.25.23 1.3 1.3 0 00.49.07.89.89 0 00.59-.17.85.85 0 00.25-.57h.87a1.33 1.33 0 01-.48 1 2 2 0 01-1.25.29zM75 10.08v.73h-1.46v3.68h-.94v-3.68h-1.44v-.73zM77.62 14.57A2.13 2.13 0 0176 14a2.28 2.28 0 01-.58-1.65 2.5 2.5 0 01.54-1.7 1.86 1.86 0 011.49-.65 1.81 1.81 0 011.38.53 2 2 0 01.51 1.47v.51H76.4a1.45 1.45 0 00.35 1 1.21 1.21 0 00.92.34 3.42 3.42 0 00.73-.07 3.83 3.83 0 00.72-.25v.76a2.87 2.87 0 01-.69.23 4.24 4.24 0 01-.81.05zm-.17-3.86a.94.94 0 00-.72.28 1.34 1.34 0 00-.32.83h2a1.22 1.22 0 00-.26-.83.9.9 0 00-.7-.28zM86.13 10.08v4.41h-.94v-3.67h-2v3.67h-.94v-4.41zM89.59 14.57a1.54 1.54 0 01-1.3-.6h-.06q.06.56.06.68v1.81h-.94v-6.38h.76q0 .12.13.59A1.47 1.47 0 0189.6 10a1.53 1.53 0 011.29.6 2.7 2.7 0 01.46 1.68 2.7 2.7 0 01-.47 1.72 1.54 1.54 0 01-1.29.57zm-.23-3.8a1 1 0 00-.82.33 1.7 1.7 0 00-.26 1v.14a2.06 2.06 0 00.25 1.17 1 1 0 00.83.36.85.85 0 00.75-.4 2.05 2.05 0 00.26-1.14 2 2 0 00-.26-1.12.87.87 0 00-.75-.34zM93.21 10.08v2.26q0 .39-.06 1.16l2.21-3.42h1.14v4.41h-.9v-2.22-.59-.6l-2.21 3.41h-1.07v-4.41zM101.34 14.49h-.94v-3.68h-1.22a15.32 15.32 0 01-.3 2.22 2.9 2.9 0 01-.49 1.16 1 1 0 01-.79.37 1.32 1.32 0 01-.51-.09v-.73a.83.83 0 00.29.06q.41 0 .64-.91a17.11 17.11 0 00.36-2.8h3zM106.47 12.28a2.41 2.41 0 01-.55 1.69 2 2 0 01-1.54.61 2.11 2.11 0 01-1.09-.28 1.84 1.84 0 01-.73-.8 2.72 2.72 0 01-.26-1.21 2.39 2.39 0 01.55-1.67 2 2 0 011.55-.6 1.94 1.94 0 011.51.62 2.38 2.38 0 01.56 1.64zm-3.21 0q0 1.53 1.13 1.53t1.12-1.53q0-1.51-1.12-1.51a1 1 0 00-.85.39 2 2 0 00-.28 1.12zM109.6 12.22v-2.14h.87v2.14l1.7-2.14h1l-1.73 2.13 1.89 2.28h-1l-1.81-2.24v2.24h-.87v-2.24l-1.81 2.24h-1l1.89-2.28-1.73-2.13h1zM115.79 14.57a2.13 2.13 0 01-1.61-.6 2.28 2.28 0 01-.58-1.65 2.5 2.5 0 01.54-1.7 1.86 1.86 0 011.48-.62 1.81 1.81 0 011.38.53 2 2 0 01.51 1.46v.51h-2.94a1.45 1.45 0 00.35 1 1.21 1.21 0 00.92.34 3.42 3.42 0 00.73-.07 3.83 3.83 0 00.72-.25v.76a2.87 2.87 0 01-.69.23 4.24 4.24 0 01-.81.06zm-.17-3.86a.94.94 0 00-.72.28 1.34 1.34 0 00-.32.83h2a1.22 1.22 0 00-.26-.83.9.9 0 00-.7-.28zM119.38 10.08v1.77h2.08v-1.77h.94v4.41h-.94v-1.9h-2.08v1.9h-.94v-4.41zM124.51 10.08v2.26q0 .39-.06 1.16l2.21-3.42h1.14v4.41h-.9v-2.22-.59-.6l-2.21 3.41h-1.14v-4.41zM130.94 14.57a2.13 2.13 0 01-1.61-.6 2.28 2.28 0 01-.58-1.65 2.5 2.5 0 01.54-1.7 1.86 1.86 0 011.48-.62 1.81 1.81 0 011.38.53 2 2 0 01.51 1.46v.51h-2.94a1.45 1.45 0 00.35 1 1.21 1.21 0 00.92.34 3.42 3.42 0 00.73-.07 3.83 3.83 0 00.72-.25v.76a2.87 2.87 0 01-.69.23 4.24 4.24 0 01-.81.06zm-.17-3.86a.94.94 0 00-.72.28 1.34 1.34 0 00-.32.83h2a1.22 1.22 0 00-.26-.83.9.9 0 00-.7-.28zM139.83 16H139v-1.51h-3V16h-.87v-2.24h.36a5.53 5.53 0 00.75-1.63 8.83 8.83 0 00.33-2.06h2.68v3.68h.65zm-1.57-2.28v-3h-.95a8.24 8.24 0 01-.32 1.62 5.53 5.53 0 01-.59 1.35zM144.15 14.49h-.94v-3.68H142a15.32 15.32 0 01-.3 2.22 2.9 2.9 0 01-.49 1.16 1 1 0 01-.79.37 1.32 1.32 0 01-.51-.09v-.73a.83.83 0 00.29.06q.41 0 .64-.91a17.11 17.11 0 00.36-2.8h3zM145.81 14.49h-1l1.19-1.81a1.32 1.32 0 01-.7-.46 1.29 1.29 0 01-.25-.82 1.18 1.18 0 01.45-1 1.92 1.92 0 011.22-.35h2v4.41h-.94v-1.7h-.89zm.14-3.07a.57.57 0 00.26.51 1.24 1.24 0 00.69.17h.87v-1.31h-1a.94.94 0 00-.59.16.56.56 0 00-.23.47zM53.73 30.73h-1.92L50 24.28q-.12-.42-.3-1.22T49.46 22c0 .32-.13.72-.24 1.23s-.2.88-.28 1.12l-1.79 6.42h-1.92l-1.4-5.41-1.42-5.4h1.8l1.55 6.3a27.15 27.15 0 01.52 2.68q.08-.63.24-1.4t.3-1.26l1.76-6.31h1.75l1.8 6.34a23.8 23.8 0 01.55 2.63 19.33 19.33 0 01.53-2.69l1.54-6.28h1.79zM57.56 20.38a1 1 0 01.25-.72 1 1 0 01.73-.25 1 1 0 01.71.25 1 1 0 01.26.72 1 1 0 01-.26.7 1 1 0 01-.71.25 1 1 0 01-.73-.25 1 1 0 01-.25-.7zm1.84 10.35h-1.73v-8.18h1.73zM68.86 30.73h-1.75v-5a2.2 2.2 0 00-.38-1.41 1.47 1.47 0 00-1.21-.47 1.92 1.92 0 00-1.61.65 3.59 3.59 0 00-.51 2.18v4.07h-1.74v-8.2H63l.24 1.07h.09a2.41 2.41 0 011-.9 3.52 3.52 0 011.51-.32q2.94 0 2.94 3zM73.8 30.87a2.85 2.85 0 01-2.39-1.11 5 5 0 01-.86-3.11 5 5 0 01.87-3.13 2.87 2.87 0 012.41-1.12 2.82 2.82 0 012.46 1.19h.09a10.4 10.4 0 01-.13-1.39v-3H78v11.5h-1.37l-.3-1.07h-.08a2.78 2.78 0 01-2.45 1.24zm.47-1.4a1.89 1.89 0 001.56-.6 3.18 3.18 0 00.5-2v-.24a3.66 3.66 0 00-.5-2.2 1.87 1.87 0 00-1.58-.65 1.6 1.6 0 00-1.41.74 3.81 3.81 0 00-.5 2.12 3.7 3.7 0 00.48 2.07 1.62 1.62 0 001.45.76zM87.51 26.62a4.46 4.46 0 01-1 3.13 3.68 3.68 0 01-2.86 1.12 3.92 3.92 0 01-2-.52 3.42 3.42 0 01-1.35-1.49 5.07 5.07 0 01-.47-2.25 4.44 4.44 0 011-3.11 3.7 3.7 0 012.88-1.12 3.6 3.6 0 012.81 1.14 4.41 4.41 0 01.99 3.1zm-6 0q0 2.83 2.09 2.83t2.07-2.83q0-2.8-2.08-2.8a1.78 1.78 0 00-1.59.72 3.69 3.69 0 00-.45 2.08zM96 30.73l-1.06-3.82q-.19-.61-.69-2.82h-.07q-.43 2-.68 2.83l-1.09 3.8h-1.94l-2.29-8.18H90l1 4q.35 1.49.5 2.56.07-.54.23-1.24t.26-1l1.24-4.3h1.91l1.21 4.3q.11.36.28 1.11a8.45 8.45 0 01.2 1.16h.06a22.41 22.41 0 01.52-2.54l1.06-4h1.75l-2.31 8.18zM106.91 28.4a2.14 2.14 0 01-.87 1.84 4.18 4.18 0 01-2.5.64 5.9 5.9 0 01-2.62-.5v-1.5a6.45 6.45 0 002.68.67q1.61 0 1.6-1a.77.77 0 00-.18-.52 2.1 2.1 0 00-.58-.43 10 10 0 00-1.13-.5 5.23 5.23 0 01-1.91-1.1 2 2 0 01-.5-1.42 1.86 1.86 0 01.85-1.63 4 4 0 012.3-.58 6.52 6.52 0 012.73.58l-.56 1.31a6.08 6.08 0 00-2.23-.55q-1.38 0-1.37.78a.79.79 0 00.36.65 7.9 7.9 0 001.56.73 7.12 7.12 0 011.47.72 2.14 2.14 0 01.68.75 2.16 2.16 0 01.22 1.06zM116.81 19.92l-4 10.81h-1.64l4-10.81zM126.51 30.73l-3.13-9h-.06q.12 2 .13 3.77v5.26h-1.6V19.92h2.49l3 8.6 3.09-8.6H133v10.81h-1.7v-5.35-2.1q0-1.29.07-1.57h-.06l-3.25 9zM140.52 30.73l-.35-1.14h-.06a3.35 3.35 0 01-1.19 1 3.77 3.77 0 01-1.54.27 2.6 2.6 0 01-1.88-.65 2.43 2.43 0 01-.68-1.84 2.16 2.16 0 01.94-1.91 5.41 5.41 0 012.86-.7h1.41v-.44a1.65 1.65 0 00-.37-1.17 1.49 1.49 0 00-1.13-.39 3.93 3.93 0 00-1.21.18 9 9 0 00-1.11.44l-.56-1.24a6 6 0 011.46-.53 6.73 6.73 0 011.49-.18 3.54 3.54 0 012.35.68 2.66 2.66 0 01.79 2.14v5.51zm-2.59-1.18a2.15 2.15 0 001.52-.53 1.92 1.92 0 00.57-1.48v-.71h-1a3.59 3.59 0 00-1.79.41 1.25 1.25 0 00-.56 1.12 1.09 1.09 0 00.33.85 1.4 1.4 0 00.93.33zM147.26 30.87a3.58 3.58 0 01-2.82-1.08 4.53 4.53 0 01-1-3.11 4.55 4.55 0 011-3.17 3.74 3.74 0 012.92-1.11 5.47 5.47 0 012.33.48l-.53 1.4a5.26 5.26 0 00-1.82-.43q-2.12 0-2.12 2.82a3.38 3.38 0 00.53 2.07 1.83 1.83 0 001.55.69 4.44 4.44 0 002.2-.58v1.52a3.41 3.41 0 01-1 .39 6 6 0 01-1.24.11zM31.43 8.33H11.24a2 2 0 00-2 2v14.16a2 2 0 002 2h7.07a4.56 4.56 0 01-.75 2.7 1 1 0 01-.76.33.5.5 0 000 1h9.09a.5.5 0 000-1 1 1 0 01-.76-.33 4.57 4.57 0 01-.75-2.7h7.07a2 2 0 002-2V10.35a2 2 0 00-2.02-2.02zM21.33 25.5a1 1 0 111-1 1 1 0 01-1 1zm-10.1-3V10.35h20.2v12.12z"/></g></svg>