<svg height="40" width="135" xmlns="http://www.w3.org/2000/svg"><g fill="#6a828c"><path d="M130 .8a4.23 4.23 0 014.2 4.2v30a4.23 4.23 0 01-4.2 4.2H5A4.23 4.23 0 01.8 35V5A4.23 4.23 0 015 .8zm0-.8H5a5.08 5.08 0 00-5 5v30a5 5 0 005 5h125a5 5 0 005-5V5a5 5 0 00-5-5z"/><path d="M68.1 21.8a4.21 4.21 0 00-4.3 4.3 4.27 4.27 0 004.3 4.3 4.21 4.21 0 004.3-4.3 4.15 4.15 0 00-4.3-4.3zm0 6.8a2.61 2.61 0 010-5.2 2.42 2.42 0 012.4 2.6 2.48 2.48 0 01-2.4 2.6zm-9.3-6.8a4.21 4.21 0 00-4.3 4.3 4.27 4.27 0 004.3 4.3 4.21 4.21 0 004.3-4.3 4.15 4.15 0 00-4.3-4.3zm0 6.8a2.61 2.61 0 010-5.2 2.42 2.42 0 012.4 2.6 2.48 2.48 0 01-2.4 2.6zm-11.1-5.5v1.8H52a3.78 3.78 0 01-1 2.3 4.43 4.43 0 01-3.3 1.3 4.66 4.66 0 01-4.7-4.8 4.72 4.72 0 014.7-4.8 5 5 0 013.3 1.3l1.3-1.3a6.41 6.41 0 00-4.5-1.8 6.75 6.75 0 00-6.7 6.6 6.75 6.75 0 006.7 6.6 5.75 5.75 0 004.6-1.9 6 6 0 001.6-4.2 3.75 3.75 0 00-.1-1.1zm45.4 1.4a3.89 3.89 0 00-3.6-2.7 4 4 0 00-4 4.3 4.18 4.18 0 004.2 4.3 4.1 4.1 0 003.5-1.9l-1.4-1a2.44 2.44 0 01-2.1 1.2 2.17 2.17 0 01-2.1-1.3l5.7-2.4zm-5.8 1.4a2.43 2.43 0 012.2-2.5 1.77 1.77 0 011.6.9zM82.6 30h1.9V17.5h-1.9zm-3-7.3a3.29 3.29 0 00-2.3-1 4.3 4.3 0 00-4.1 4.3 4.14 4.14 0 004.1 4.2 2.87 2.87 0 002.2-1h.1v.6a2.27 2.27 0 01-4.4 1l-1.6.7a4.13 4.13 0 003.8 2.5c2.2 0 4-1.3 4-4.4V22h-1.8zm-2.2 5.9a2.61 2.61 0 010-5.2 2.41 2.41 0 012.3 2.6 2.41 2.41 0 01-2.3 2.6zm24.4-11.1h-4.5V30h1.9v-4.7h2.6a3.9 3.9 0 100-7.8zm.1 6h-2.7v-4.3h2.7a2.2 2.2 0 012.2 2.1 2.29 2.29 0 01-2.2 2.2zm11.5-1.8a3.36 3.36 0 00-3.3 1.9l1.7.7a1.77 1.77 0 011.7-.9 1.88 1.88 0 012 1.6v.1a4 4 0 00-1.9-.5c-1.8 0-3.6 1-3.6 2.8a2.93 2.93 0 003.1 2.8 2.81 2.81 0 002.4-1.2h.1v1h1.8v-4.8a3.78 3.78 0 00-4-3.5zm-.2 6.9c-.6 0-1.5-.3-1.5-1.1 0-1 1.1-1.3 2-1.3a3.87 3.87 0 011.7.4 2.33 2.33 0 01-2.2 2zm10.5-6.6l-2.1 5.4h-.1l-2.2-5.4h-2l3.3 7.6-1.9 4.2h1.9l5.1-11.8zm-16.8 8h1.9V17.5h-1.9z"/><g stroke="#fff" stroke-miterlimit="10" stroke-width=".2"><path d="M42.1 14.3h-.7v-2h.6a2.89 2.89 0 00.8-2.3V7h4v5.3h.7v2h-.7V13h-4.6v1.3zm1.4-4.3a4.14 4.14 0 01-.6 2.3h3V7.7h-2.5zM53.4 12.2a3.1 3.1 0 01-5.3-2.2 3.1 3.1 0 116.2 0 2.94 2.94 0 01-.9 2.2zm-3.8-.5a2.36 2.36 0 001.6.7 2 2 0 001.6-.7 2.41 2.41 0 00.7-1.7 2.06 2.06 0 00-.7-1.7 2.36 2.36 0 00-1.6-.7 2 2 0 00-1.6.7 2.41 2.41 0 00-.7 1.7 2.06 2.06 0 00.7 1.7zM58.2 13.1a3.07 3.07 0 01-3.1-3.1 3.07 3.07 0 013.1-3.1 2.7 2.7 0 012.2 1l-.5.5a2.14 2.14 0 00-1.7-.8 2.19 2.19 0 00-1.7.7 2.06 2.06 0 00-.7 1.7 2.06 2.06 0 00.7 1.7 2.41 2.41 0 001.7.7 2.27 2.27 0 001.8-.9l.5.5a3.92 3.92 0 01-1 .8 2.77 2.77 0 01-1.3.3zM63.7 13h-.8V7.7h-1.7V7h4.1v.7h-1.7zM70.6 7l-2.3 5.1a1.57 1.57 0 01-1.4 1.1 1.27 1.27 0 01-.6-.1l.2-.7a.6.6 0 00.4.1c.2 0 .3 0 .4-.1a1.38 1.38 0 00.3-.4l.2-.5-2-4.4h.9l1.5 3.4L69.7 7zM71.5 13V7h4.3v6H75V7.7h-2.8V13zM77.2 13V7h.8v2.6h3V7h.8v6H81v-2.7h-3V13zM88.1 12.2a3.1 3.1 0 01-5.3-2.2 3.1 3.1 0 116.2 0 4 4 0 01-.9 2.2zm-3.9-.5a2.36 2.36 0 001.6.7 2 2 0 001.6-.7 2.41 2.41 0 00.7-1.7 2.06 2.06 0 00-.7-1.7 2.36 2.36 0 00-1.6-.7 2 2 0 00-1.6.7 2.41 2.41 0 000 3.4zM92.1 13V7h2.2a1.66 1.66 0 011.2.5 1.61 1.61 0 01.5 1.1 2.35 2.35 0 01-.2.8 1 1 0 01-.6.5 1.79 1.79 0 01.7.5 1.22 1.22 0 01.3.9 1.66 1.66 0 01-.5 1.2 2.11 2.11 0 01-1.3.5zm.8-3.4h1.4a.91.91 0 00.7-.3.86.86 0 00.3-.6A2.12 2.12 0 0095 8a.91.91 0 00-.7-.3h-1.4zm0 2.7h1.6a1 1 0 001-1 1.08 1.08 0 00-.3-.7.91.91 0 00-.7-.3H93z"/></g><path d="M10 20.1V8.9a1.59 1.59 0 01.4-1.2c.1-.1.2-.2.4 0 2.5 2.6 5.1 5.1 7.6 7.7 1.6 1.7 3.3 3.3 4.9 5 .2.2.2.2 0 .4l-12 12c-.2.2-.4.2-.7 0a1.82 1.82 0 01-.6-1.4zM11.4 7.2a1.45 1.45 0 01.7.2c5.1 2.9 10.3 5.8 15.4 8.6.2.1.2.2 0 .4l-3.4 3.4c-.1.1-.2.2-.4 0-4.1-4.2-8.2-8.3-12.3-12.5.1 0 .1 0 0-.1zM12.6 32.6c3.7-3.8 7.5-7.5 11.2-11.3.2-.2.3-.2.5 0a39.67 39.67 0 002.9 2.9c.2.2.2.2 0 .4-4.8 2.6-9.6 5.2-14.3 7.9a.44.44 0 00-.3.1zM33.9 20.2a1.05 1.05 0 01-.5.9 2.51 2.51 0 01-.7.4c-1.4.8-2.9 1.6-4.3 2.4-.2.1-.3.1-.5-.1-1-1.1-2.1-2.1-3.1-3.2-.2-.2-.2-.2 0-.4l3.6-3.6c.1-.1.2-.2.4-.1 1.4.8 2.9 1.6 4.3 2.4a2 2 0 01.8 1.3z"/></g></svg>