<svg height="40" width="119.7" xmlns="http://www.w3.org/2000/svg"><g fill="#6a828c"><path d="M119.7 8.4v-.9a13.55 13.55 0 00-.2-2 6 6 0 00-.6-1.9 6.32 6.32 0 00-2.8-2.8 6 6 0 00-1.9-.6 13.55 13.55 0 00-2-.2H7.5a13.55 13.55 0 00-2 .2 7 7 0 00-1.9.6A6.1 6.1 0 002 2 6.1 6.1 0 00.8 3.6a7 7 0 00-.6 1.9 15 15 0 00-.2 2v24.9a13.55 13.55 0 00.2 2 6 6 0 00.6 1.9A5.23 5.23 0 002 38a6.1 6.1 0 001.6 1.2 6 6 0 001.9.6 13.55 13.55 0 002 .2h104.6a13.55 13.55 0 002-.2 6 6 0 001.9-.6 7.07 7.07 0 002.8-2.8 6 6 0 00.6-1.9 13.55 13.55 0 00.2-2v-23a3.75 3.75 0 00.1-1.1zm-.9 22.1v2a13.66 13.66 0 01-.2 1.9 10.93 10.93 0 01-.5 1.7 7.1 7.1 0 01-1 1.4 4.51 4.51 0 01-1.4 1 3.37 3.37 0 01-1.7.5 11.08 11.08 0 01-1.9.2H7.5a12.25 12.25 0 01-1.9-.2 10.93 10.93 0 01-1.7-.5 7.1 7.1 0 01-1.4-1 4.51 4.51 0 01-1-1.4 4.8 4.8 0 01-.5-1.7 11.08 11.08 0 01-.2-1.9v-25A12.25 12.25 0 011 5.6 5.23 5.23 0 011.6 4a7.1 7.1 0 011-1.4 7.1 7.1 0 011.4-1 4.8 4.8 0 011.7-.5A11.08 11.08 0 017.6.9h104.6a13.66 13.66 0 011.9.2 10.93 10.93 0 011.7.5 5.56 5.56 0 012.4 2.4 4.94 4.94 0 01.5 1.6 12.25 12.25 0 01.2 1.9v23z"/><path d="M25 19.9a4.84 4.84 0 012.5-4.3 5.08 5.08 0 00-4.2-2.2c-1.7-.2-3.4 1-4.3 1s-2.3-1-3.8-1a5.78 5.78 0 00-4.7 2.8c-2 3.5-.5 8.6 1.4 11.4 1 1.4 2.1 2.9 3.6 2.9s2-.9 3.7-.9 2.2.9 3.7.9 2.5-1.4 3.5-2.8a13.69 13.69 0 001.6-3.2 5.05 5.05 0 01-3-4.6zM22.2 11.5a5.24 5.24 0 001.2-3.6A4.69 4.69 0 0020 9.6a5 5 0 00-1.2 3.5 4.58 4.58 0 003.4-1.6zM42.3 27.1h-4.7l-1.1 3.4h-2L39 18.1h2l4.5 12.4h-2zm-4.2-1.5h3.8L40 20.1h-.1zM55.2 26c0 2.8-1.5 4.6-3.8 4.6a2.91 2.91 0 01-2.8-1.6v4.5h-1.9v-12h1.8V23a3.36 3.36 0 012.9-1.6c2.2-.1 3.8 1.8 3.8 4.6zm-2 0c0-1.8-.9-3-2.4-3s-2.4 1.2-2.4 3 1 3 2.4 3 2.4-1.2 2.4-3zM65.1 26c0 2.8-1.5 4.6-3.8 4.6a2.91 2.91 0 01-2.8-1.6v4.5h-1.9v-12h1.8V23a3.36 3.36 0 012.9-1.6c2.3-.1 3.8 1.8 3.8 4.6zm-1.9 0c0-1.8-.9-3-2.4-3s-2.4 1.2-2.4 3 1 3 2.4 3 2.4-1.2 2.4-3zM71.7 27c.1 1.2 1.3 2 3 2s2.7-.8 2.7-1.9-.7-1.5-2.3-1.9l-1.6-.4c-2.3-.6-3.3-1.6-3.3-3.3 0-2.1 1.9-3.6 4.5-3.6s4.4 1.5 4.5 3.6h-1.9a2.32 2.32 0 00-2.6-2c-1.5 0-2.5.8-2.5 1.9 0 .9.7 1.4 2.3 1.8l1.4.3c2.5.6 3.6 1.6 3.6 3.4 0 2.3-1.8 3.8-4.8 3.8-2.8 0-4.6-1.4-4.7-3.7zM83.3 19.3v2.1H85v1.5h-1.7v5c0 .8.3 1.1 1.1 1.1h.6v1.5a3.4 3.4 0 01-1 .1c-1.8 0-2.5-.7-2.5-2.4V23h-1.3v-1.5h1.3v-2.1h1.8zM86.1 26c0-2.8 1.7-4.6 4.3-4.6s4.3 1.8 4.3 4.6-1.7 4.6-4.3 4.6-4.3-1.8-4.3-4.6zm6.7 0c0-2-.9-3.1-2.4-3.1S88 24 88 26s.9 3.1 2.4 3.1 2.4-1.2 2.4-3.1zM96.2 21.4H98V23a2.07 2.07 0 012.2-1.6 1.27 1.27 0 01.6.1v1.7a2.49 2.49 0 00-.8-.1 1.88 1.88 0 00-1.9 1.8v5.7h-1.9zM109.4 27.8a3.77 3.77 0 01-3.9 2.8c-2.6 0-4.3-1.8-4.3-4.6s1.6-4.7 4.2-4.7 4.1 1.7 4.1 4.5v.6h-6.4v.1a2.43 2.43 0 002.1 2.6h.3a2 2 0 002.1-1.3zm-6.3-2.7h4.5a2.22 2.22 0 00-2.1-2.3h-.2a2.24 2.24 0 00-2.2 2.3zM36.7 11.3h.8a1 1 0 001.1-.9v-.1c0-.6-.4-.9-1.1-.9a1 1 0 00-1.2.9h-.9a2 2 0 012-1.8h.1c1.2 0 2 .7 2 1.6a1.39 1.39 0 01-1.1 1.4v.1a1.28 1.28 0 011.3 1.4 2 2 0 01-2.2 1.8 1.94 1.94 0 01-2.2-1.7V13h.9c.1.6.6.9 1.4.9s1.3-.4 1.3-1-.5-1-1.3-1h-.8v-.6zM40.8 13.4c0-.8.6-1.3 1.7-1.3l1.2-.1v-.4c0-.5-.3-.7-.9-.7s-.8.2-.9.5H41a1.61 1.61 0 011.8-1.3c1.1 0 1.8.6 1.8 1.5v3.1h-.9v-.6h-.1a1.51 1.51 0 01-1.4.7 1.42 1.42 0 01-1.5-1.2c.1-.1.1-.1.1-.2zm2.9-.4v-.4l-1.1.1c-.6 0-.9.3-.9.6s.4.6.8.6a.9.9 0 001.2-.9zM47 10.9v3.8h-.9v-4.5h3v.7zM54.4 12.4c0 1.4-.7 2.3-1.9 2.3a1.6 1.6 0 01-1.4-.8H51v2.2h-.9v-6h.9v.7h.1a1.6 1.6 0 011.4-.8 2.11 2.11 0 011.9 2.4zm-.9 0c0-1-.5-1.5-1.2-1.5s-1.2.6-1.2 1.5.5 1.5 1.2 1.5 1.2-.5 1.2-1.5zM55.6 16.3v-.8h.3a.76.76 0 00.8-.6l.1-.2-1.6-4.5h1l1.1 3.6h.1l1.1-3.6h.9l-1.7 4.7c-.4 1.1-.8 1.4-1.7 1.4zM60.1 13.4h.9a.92.92 0 001 .6c.6 0 1-.3 1-.7s-.3-.6-1-.6h-.7V12h.7c.5 0 .8-.2.8-.6s-.3-.6-.8-.6-.9.2-.9.6h-.9a1.59 1.59 0 011.8-1.3c1.1 0 1.7.5 1.7 1.2a1 1 0 01-.7.9v.1a1.06 1.06 0 01.9 1c0 .9-.7 1.4-1.8 1.4s-1.9-.4-2-1.3zM65.1 14.7v-4.5h.9v3.1l2.1-3.1h.9v4.5h-.9v-3.1H68l-2.1 3.1zM73.8 10.9h-1.4v3.8h-.9v-3.8h-1.4v-.7h3.7zM78.6 13.5a1.88 1.88 0 01-2 1.3 2.09 2.09 0 01-2.1-2v-.3a2 2 0 011.8-2.3h.3c1.3 0 2 .9 2 2.3v.3h-3.2a1.16 1.16 0 001.1 1.3h.1a1.17 1.17 0 001.1-.5zM75.5 12h2.3a1.19 1.19 0 00-1-1.2h-.1a1.29 1.29 0 00-1.2 1.2zM82.4 10.2h2c.9 0 1.4.4 1.4 1.1a1 1 0 01-.8 1v.1a1.08 1.08 0 011 1c0 .8-.6 1.3-1.6 1.3h-2.1v-4.5zm.9.7V12h.9c.5 0 .8-.2.8-.6s-.2-.6-.7-.6zm0 1.8V14h1.1c.5 0 .8-.2.8-.7s-.3-.7-.9-.7z"/></g></svg>